<svg id="visual" viewBox="0 0 900 600" width="900" height="600" xmlns="http://www.w3.org/2000/svg" xmlns:xlink="http://www.w3.org/1999/xlink" version="1.1"><g transform="translate(467.3744844558069 319.35361964023656)"><path d="M111.9 -167.8C146.1 -174 175.7 -146.3 182.2 -112.6C188.8 -79 172.4 -39.5 156.1 -9.4C139.8 20.7 123.6 41.3 103.8 52.2C84.1 63 60.8 64 42.9 88.3C25 112.6 12.5 160.3 -5.6 170C-23.7 179.7 -47.3 151.3 -75.5 132.9C-103.6 114.5 -136.2 106 -157.9 85.5C-179.6 65 -190.3 32.5 -201.4 -6.4C-212.5 -45.3 -224 -90.7 -215.5 -134C-207 -177.3 -178.5 -218.5 -139.3 -209.4C-100 -200.2 -50 -140.6 -5.6 -130.9C38.8 -121.3 77.7 -161.5 111.9 -167.8" fill="#22C55E"></path></g></svg>